<?xml version="1.0" encoding="utf-8"?>
<!-- Generator: Adobe Illustrator 16.0.0, SVG Export Plug-In . SVG Version: 6.00 Build 0)  -->
<!DOCTYPE svg PUBLIC "-//W3C//DTD SVG 1.1//EN" "http://www.w3.org/Graphics/SVG/1.1/DTD/svg11.dtd">
<svg version="1.1" id="Layer_1" xmlns="http://www.w3.org/2000/svg" xmlns:xlink="http://www.w3.org/1999/xlink" x="0px" y="0px"
	 width="74px" height="76.5px" viewBox="0 0 74 76.5" enable-background="new 0 0 74 76.5" xml:space="preserve">
<g>
	<g>
		<path fill-rule="evenodd" clip-rule="evenodd" fill="#FFFFFF" d="M35.953,5.604c0.494,0.636,0.936,1.324,1.505,1.882
			c0.297,0.292,0.813,0.482,1.234,0.494c1.78,0.053,3.562,0.022,5.552,0.022c0,0.614,0,1.138,0,1.663
			c0,5.208-0.107,10.42,0.021,15.626c0.277,11.194-7.007,19.827-17.723,21.465c-1.674,10.799,4.491,19.125,13.549,21.076
			c9.796,2.111,19.18-4.409,20.848-14.218c0.197-1.167,0.233-2.372,0.237-3.56c0.021-6.201-0.012-12.403,0.031-18.604
			c0.007-1.072-0.28-1.646-1.314-2.132c-3.305-1.545-4.995-5.227-4.161-8.679c0.865-3.567,3.978-5.893,7.784-5.816
			c3.649,0.073,6.494,2.509,7.274,6.212c0.048,0.228,0.199,0.432,0.304,0.648c0,0.497,0,0.992,0,1.489
			c-0.101,0.226-0.251,0.441-0.292,0.677c-0.419,2.612-1.911,4.434-4.256,5.516c-0.915,0.425-1.179,0.932-1.175,1.903
			c0.044,6.55,0.042,13.101,0.02,19.651c-0.029,9.011-5.728,17.151-14.217,20.185c-1.93,0.688-3.991,1.014-5.992,1.506
			c-0.994,0-1.983,0-2.978,0c-0.419-0.107-0.835-0.278-1.265-0.318c-9.297-0.857-17.863-9.429-18.653-18.727
			c-0.195-2.258-0.267-4.524-0.397-6.811c-0.227-0.041-0.416-0.075-0.605-0.113C12.896,45.014,7.36,40.187,4.891,31.964
			c-0.361-1.215-0.539-2.483-0.805-3.726c0-6.75,0-13.502,0-20.252C5.963,7.992,7.84,8.028,9.714,7.978
			c0.412-0.01,0.911-0.227,1.206-0.517c0.564-0.555,1.012-1.23,1.506-1.856c0.396,0,0.791,0,1.189,0
			c0.488,0.734,1.283,1.423,1.402,2.214c0.227,1.503,0.073,3.065,0.062,4.604c-0.011,1.122-0.713,1.875-1.698,1.908
			c-0.709,0.025-1.886-0.426-2.074-0.948c-0.562-1.549-1.544-1.303-2.757-1.118c-0.024,0.557-0.065,1.043-0.067,1.527
			c-0.002,4.316-0.021,8.633,0.011,12.949c0.012,1.031,0.092,2.08,0.298,3.09c1.618,7.952,8.938,13.491,16.74,12.714
			c8.189-0.814,14.333-7.576,14.361-15.828c0.014-4.315,0.005-8.631,0-12.949c-0.002-0.518-0.056-1.037-0.084-1.522
			c-1.305-0.204-2.231-0.311-2.767,1.144c-0.187,0.516-1.537,1.009-2.185,0.843c-0.636-0.164-1.34-1.118-1.498-1.838
			c-0.25-1.136,0.017-2.375-0.094-3.555c-0.137-1.418,0.276-2.49,1.494-3.237C35.157,5.604,35.555,5.604,35.953,5.604z
			 M66.693,22.471c0-1.968-1.533-3.519-3.452-3.495c-1.804,0.023-3.425,1.606-3.469,3.396c-0.043,1.888,1.536,3.507,3.443,3.528
			C65.192,25.923,66.693,24.443,66.693,22.471z"/>
	</g>
</g>
</svg>
