<?xml version="1.0" encoding="utf-8"?>
<!-- Generator: Adobe Illustrator 16.0.0, SVG Export Plug-In . SVG Version: 6.00 Build 0)  -->
<!DOCTYPE svg PUBLIC "-//W3C//DTD SVG 1.1//EN" "http://www.w3.org/Graphics/SVG/1.1/DTD/svg11.dtd">
<svg version="1.1" id="Layer_1" xmlns="http://www.w3.org/2000/svg" xmlns:xlink="http://www.w3.org/1999/xlink" x="0px" y="0px"
	 width="74px" height="76.5px" viewBox="0 0 74 76.5" enable-background="new 0 0 74 76.5" xml:space="preserve">
<g>
	<path fill-rule="evenodd" clip-rule="evenodd" fill="#FFFFFF" d="M59.027,12.562c1.834,0,3.508-0.154,5.144,0.03
		c3.767,0.427,6.092,3.249,6.097,7.274c0.016,11.852,0.005,23.706,0.005,35.559c0,2.909,0.02,5.818-0.005,8.728
		c-0.04,4.483-2.906,7.359-7.4,7.362c-17.832,0.014-35.666,0.016-53.499-0.002C5.091,71.51,2.16,68.596,2.151,64.3
		C2.127,49.429,2.127,34.56,2.15,19.689c0.01-4.243,2.841-7.08,7.073-7.187c1.332-0.035,2.667-0.006,4.161-0.006
		c0,1.375-0.018,2.6,0.005,3.825c0.059,3.073,2.349,5.505,5.429,5.784c2.725,0.246,5.51-1.931,5.966-4.815
		c0.241-1.52,0.219-3.083,0.321-4.71c7.428,0,14.781,0,22.332,0c0,1.155-0.013,2.219,0.004,3.28c0.056,3.57,2.563,6.254,5.836,6.257
		c3.286,0,5.743-2.691,5.75-6.294C59.027,14.761,59.027,13.697,59.027,12.562z M6.667,30.573c-0.035,0.598-0.077,1.021-0.077,1.444
		c-0.003,9.912,0,19.822,0.007,29.733c0,2.315,0.755,3.059,3.104,3.06c17.617,0.006,35.229,0.01,52.841,0.008
		c2.57,0,3.28-0.694,3.28-3.222c0.009-9.804,0.006-19.607,0-29.411c0-0.518-0.059-1.036-0.095-1.612
		C46.008,30.573,26.423,30.573,6.667,30.573z"/>
	<path fill-rule="evenodd" clip-rule="evenodd" fill="#FFFFFF" d="M56.568,12.436c0,1.181,0.086,2.37-0.021,3.543
		c-0.179,2.042-1.639,3.305-3.528,3.182c-1.785-0.116-3.033-1.514-3.053-3.494c-0.021-2.15-0.022-4.3,0.011-6.448
		c0.031-2.028,1.36-3.469,3.199-3.543c1.741-0.067,3.272,1.402,3.409,3.375c0.076,1.124,0.014,2.256,0.014,3.385
		C56.588,12.436,56.577,12.436,56.568,12.436z"/>
	<path fill-rule="evenodd" clip-rule="evenodd" fill="#FFFFFF" d="M22.44,12.557c0,1.129,0.04,2.258-0.011,3.386
		c-0.076,1.791-1.281,3.054-2.992,3.216c-1.683,0.157-3.326-0.911-3.446-2.659c-0.181-2.718-0.156-5.469,0.027-8.189
		c0.102-1.6,1.801-2.744,3.334-2.632c1.615,0.117,3.011,1.509,3.088,3.172c0.06,1.234,0.013,2.472,0.013,3.707
		C22.449,12.557,22.441,12.557,22.44,12.557z"/>
	<path fill-rule="evenodd" clip-rule="evenodd" fill="#FFFFFF" d="M11.339,53.542c2.979,0,5.807,0,8.744,0c0,2.174,0,4.286,0,6.476
		c-2.916,0-5.779,0-8.744,0C11.339,57.839,11.339,55.775,11.339,53.542z"/>
	<path fill-rule="evenodd" clip-rule="evenodd" fill="#FFFFFF" d="M52.308,59.996c0-2.145,0-4.225,0-6.409c2.915,0,5.79,0,8.766,0
		c0,2.12,0,4.193,0,6.409C58.14,59.996,55.265,59.996,52.308,59.996z"/>
	<path fill-rule="evenodd" clip-rule="evenodd" fill="#FFFFFF" d="M33.7,53.587c0,2.214,0,4.286,0,6.452c-2.867,0-5.64,0-8.573,0
		c0-2.132,0-4.236,0-6.452C27.951,53.587,30.765,53.587,33.7,53.587z"/>
	<path fill-rule="evenodd" clip-rule="evenodd" fill="#FFFFFF" d="M38.753,53.551c2.899,0,5.674,0,8.572,0c0,2.177,0,4.279,0,6.482
		c-2.891,0-5.657,0-8.572,0C38.753,57.894,38.753,55.793,38.753,53.551z"/>
	<path fill-rule="evenodd" clip-rule="evenodd" fill="#FFFFFF" d="M52.324,35.438c2.952,0,5.819,0,8.771,0c0,2.142,0,4.163,0,6.306
		c-2.935,0-5.802,0-8.771,0C52.324,39.642,52.324,37.579,52.324,35.438z"/>
	<path fill-rule="evenodd" clip-rule="evenodd" fill="#FFFFFF" d="M20.077,50.865c-2.978,0-5.812,0-8.742,0c0-2.13,0-4.153,0-6.318
		c2.889,0,5.761,0,8.742,0C20.077,46.597,20.077,48.664,20.077,50.865z"/>
	<path fill-rule="evenodd" clip-rule="evenodd" fill="#FFFFFF" d="M61.083,44.502c0,2.117,0,4.14,0,6.318c-2.909,0-5.774,0-8.751,0
		c0-2.08,0-4.148,0-6.318C55.244,44.502,58.116,44.502,61.083,44.502z"/>
	<path fill-rule="evenodd" clip-rule="evenodd" fill="#FFFFFF" d="M24.996,44.509c2.955,0,5.734,0,8.664,0c0,2.039,0,4.103,0,6.436
		c-2.647,0-5.312,0.022-7.977-0.039c-0.238-0.005-0.649-0.549-0.658-0.852C24.96,48.241,24.996,46.425,24.996,44.509z"/>
	<path fill-rule="evenodd" clip-rule="evenodd" fill="#FFFFFF" d="M38.711,44.49c2.888,0,5.664,0,8.595,0c0,2.09,0,4.15,0,6.35
		c-2.856,0-5.67,0-8.595,0C38.711,48.742,38.711,46.715,38.711,44.49z"/>
	<path fill-rule="evenodd" clip-rule="evenodd" fill="#FFFFFF" d="M47.315,41.766c-2.966,0-5.746,0-8.61,0c0-2.125,0-4.148,0-6.311
		c2.835,0,5.653,0,8.61,0C47.315,37.532,47.315,39.59,47.315,41.766z"/>
	<path fill-rule="evenodd" clip-rule="evenodd" fill="#FFFFFF" d="M25.027,41.75c0-2.165,0-4.149,0-6.28c2.876,0,5.696,0,8.648,0
		c0,2.03,0,4.094,0,6.28C30.833,41.75,28.015,41.75,25.027,41.75z"/>
</g>
</svg>
