<?xml version="1.0" encoding="utf-8"?>
<!-- Generator: Adobe Illustrator 16.0.0, SVG Export Plug-In . SVG Version: 6.00 Build 0)  -->
<!DOCTYPE svg PUBLIC "-//W3C//DTD SVG 1.1//EN" "http://www.w3.org/Graphics/SVG/1.1/DTD/svg11.dtd">
<svg version="1.1" id="Layer_1" xmlns="http://www.w3.org/2000/svg" xmlns:xlink="http://www.w3.org/1999/xlink" x="0px" y="0px"
	 width="97.5px" height="76.5px" viewBox="0 0 97.5 76.5" enable-background="new 0 0 97.5 76.5" xml:space="preserve">
<g>
	<g>
		<path fill-rule="evenodd" clip-rule="evenodd" fill="#FFFFFF" d="M27.525,3.593c2.162,0.474,4.382,0.774,6.471,1.471
			c2.24,0.747,4.355,1.868,6.358,2.75c-3.301,2.131-6.722,3.809-9.503,6.228C20.77,22.809,18.37,35.588,24.525,47.771
			c1.838,3.636,4.354,6.967,6.855,10.21c1.189,1.538,1.157,2.389-0.069,3.767c-1.757,1.973-3.274,4.161-4.987,6.38
			c-1.837-2.355-3.506-4.64-5.325-6.798c-3.357-3.983-6.842-7.86-10.204-11.841c-4.586-5.431-8.05-11.434-9.106-18.604
			c0-1.817,0-3.638,0-5.458c0.107-0.339,0.252-0.67,0.319-1.018C3.796,15.053,9.188,8.652,18.013,5.212
			c2.094-0.815,4.396-1.095,6.6-1.619C25.582,3.593,26.556,3.593,27.525,3.593z"/>
		<path fill-rule="evenodd" clip-rule="evenodd" fill="#FFFFFF" d="M95.938,30.884c-1.344,10.074-7.853,17.149-14.084,24.414
			c-3.349,3.904-6.52,7.958-9.765,11.954c-0.22,0.275-0.357,0.622-0.617,1.08c-2.248-2.871-4.26-5.36-6.144-7.94
			c-0.221-0.301,0.068-1.233,0.401-1.648c3.223-4.025,6.309-8.138,8.362-12.912c6.188-14.419-0.552-30.824-15.07-36.714
			c-0.545-0.221-1.091-0.443-2.074-0.842c1.409-0.82,2.441-1.676,3.625-2.062c3.019-0.986,6.104-1.761,9.163-2.62
			c0.969,0,1.941,0,2.911,0c0.335,0.105,0.669,0.268,1.013,0.312c10.42,1.252,17.299,6.994,21.008,16.671
			c0.597,1.551,0.854,3.23,1.271,4.851C95.938,27.246,95.938,29.066,95.938,30.884z"/>
		<path fill-rule="evenodd" clip-rule="evenodd" fill="#FFFFFF" d="M48.834,74.333c-6.43-7.82-12.91-15.351-18.965-23.206
			c-3.794-4.919-5.753-10.663-5.657-17.066c0.164-11.151,8.606-21.431,19.567-23.528c13.267-2.539,25.976,5.501,29.021,18.561
			c1.792,7.686,0.076,14.899-4.491,21.173c-4.091,5.617-8.789,10.791-13.194,16.182C53.015,69.02,50.974,71.644,48.834,74.333z
			 M48.813,22.902c-6.474,0.03-11.728,5.378-11.646,11.855c0.077,6.329,5.46,11.738,11.669,11.723
			c6.259-0.016,11.799-5.662,11.705-11.93C60.44,28.162,55.117,22.874,48.813,22.902z"/>
	</g>
</g>
</svg>
