<?xml version="1.0" encoding="utf-8"?>
<!-- Generator: Adobe Illustrator 16.0.0, SVG Export Plug-In . SVG Version: 6.00 Build 0)  -->
<!DOCTYPE svg PUBLIC "-//W3C//DTD SVG 1.1//EN" "http://www.w3.org/Graphics/SVG/1.1/DTD/svg11.dtd">
<svg version="1.1" id="Layer_1" xmlns="http://www.w3.org/2000/svg" xmlns:xlink="http://www.w3.org/1999/xlink" x="0px" y="0px"
	 width="97.5px" height="76.5px" viewBox="0 0 97.5 76.5" enable-background="new 0 0 97.5 76.5" xml:space="preserve">
<g>
	<path fill-rule="evenodd" clip-rule="evenodd" fill="#FFFFFF" d="M77.199,48.667c-1.556-0.988-2.733-1.739-4.059-2.581
		c-2.481,6.647-6.659,11.877-13.301,15.004c2.927-3.273,5.592-6.814,5.634-11.263c0.041-4.39-0.369-8.862-1.258-13.159
		c-0.863-4.173-3.066-7.887-5.721-11.189c-0.241,0.097-0.481,0.19-0.72,0.287c-0.248,1.067-0.439,2.152-0.755,3.198
		c-1.044,3.42-3.159,5.749-6.792,6.473c-5.155,1.027-10.318,2.029-15.464,3.097c-3.957,0.824-6.241,4.449-5.526,8.452
		c1.018,5.687,3.849,10.37,7.682,14.954c-0.648-0.142-1.373-0.145-1.941-0.443c-5.301-2.773-9.298-6.836-11.915-12.235
		c-0.324-0.672-0.671-1.331-1.017-2.009c-3.33,2.354-6.303,2.58-8.379,0.3c-0.979-1.072-1.752-2.706-1.841-4.134
		c-0.245-3.981-0.086-7.986-0.081-11.982c0.006-2.447,1.295-4.003,3.336-5.209c0.76-0.449,1.502-1.358,1.733-2.199
		C21.068,8.489,34.773-1.218,50.686,0.124c11.945,1.009,22.983,10.077,26.656,21.97c0.461,1.496,0.907,2.564,2.749,2.946
		c2.544,0.531,4.029,2.687,4.069,5.3c0.061,4.145,0.23,8.309-0.088,12.43c-0.116,1.517-1.447,2.959-2.295,4.394
		c-0.437,0.735-1.31,1.306-1.507,2.071c-2.95,11.606-10.94,17.891-21.98,21c-0.72,0.202-1.467,0.306-2.197,0.46
		c-2.184,0.462-4.368,0.387-5.956,2.765c-1.434,2.148-5.164,1.767-7.061-0.136c-1.924-1.926-1.978-4.964-0.128-6.92
		c1.941-2.054,5.525-2.381,7.246-0.17c1.499,1.933,2.981,1.675,4.88,1.304c7.937-1.547,14.647-5.049,19.022-12.093
		C75.414,53.321,76.208,50.873,77.199,48.667z M73.119,27.426c-1.263-8.957-6.104-15.45-14.034-19.55
		c-9.628-4.977-21.027-3.33-29.335,4.14c-4.596,4.133-7.447,9.253-8.006,15.509c5.238-10.762,13.484-17.123,25.647-17.147
		C59.558,10.353,67.749,16.787,73.119,27.426z"/>
	<path fill-rule="evenodd" clip-rule="evenodd" fill="#FFFFFF" d="M40.244,54.025c9.339,1.977,10.505,1.839,16.493-1.868
		c0.267,2.53-2.228,5.347-5.683,6.422C46.777,59.909,42.521,58.182,40.244,54.025z"/>
</g>
</svg>
