<?xml version="1.0" encoding="utf-8"?>
<!-- Generator: Adobe Illustrator 27.0.1, SVG Export Plug-In . SVG Version: 6.00 Build 0)  -->
<svg version="1.1" id="Layer_1" xmlns="http://www.w3.org/2000/svg" xmlns:xlink="http://www.w3.org/1999/xlink" x="0px" y="0px"
	 viewBox="0 0 97.5 76.5" style="enable-background:new 0 0 97.5 76.5;" xml:space="preserve">
<style type="text/css">
	.st0{fill:#FFFFFF;}
</style>
<g id="WjWfqF_00000096041460502604394000000016515090918996949638_">
	<g>
		<path class="st0" d="M12.5,76c-0.1,0-0.2,0-0.3,0c0.1-0.5,0.2-1.1,0.4-1.6c1.9-5.7,3.8-11.3,5.7-17c0.3-0.8,0.2-1.4-0.2-2.1
			c-4.1-7.3-5.6-15.2-4.3-23.5C17,12.1,34.7-1.3,54.4,0.9c15.2,1.7,28,13.1,31.4,28c0.5,1.9,0.7,3.9,1,5.9c0,1.8,0,3.5,0,5.3
			c-0.2,1.3-0.4,2.6-0.6,3.8c-4.5,24.3-30.9,37.3-53,26.1c-0.5-0.3-1.3-0.3-1.9-0.1c-6,1.9-12,3.8-18,5.7
			C13.1,75.6,12.8,75.8,12.5,76z M21.6,66.5c0.7-0.2,1.1-0.3,1.5-0.4c3-1,6.1-1.9,9.1-2.9c0.8-0.3,1.4-0.2,2.1,0.2
			c6.4,3.9,13.4,5.3,20.8,4.1c16.5-2.7,27.6-18.1,25.2-34.9C78.1,16.4,62.6,4.9,46.2,7C24.6,9.9,12.7,33.9,23.8,52.6
			c1.3,2.2,1.5,3.9,0.5,6.1C23.3,61.1,22.6,63.7,21.6,66.5z"/>
		<path class="st0" d="M38.7,19.6c2.1-0.5,2.8,0.7,3.4,2.4c0.7,2,1.3,4,2.2,5.9c0.5,1.1,0.4,2-0.3,2.9c-0.6,0.8-1.3,1.6-2.1,2.3
			c-0.6,0.6-0.7,1.2-0.3,2c2.9,5.2,7,9.1,12.5,11.5c0.8,0.3,1.4,0.2,1.9-0.4c1-1.1,2-2.2,2.9-3.3c0.6-0.7,1.2-1,2.1-0.6
			c2.6,1.3,5.1,2.6,7.6,4.1c0.4,0.2,0.7,1.1,0.6,1.7c-0.3,3.8-2.8,6.5-6.6,7.3c-2,0.4-3.9,0.3-5.8-0.3c-8.5-2.6-15.2-7.6-20.1-15
			c-2-3-4-5.9-4.6-9.5c-0.7-4,0.4-7.5,3.5-10.2c0.8-0.7,2-0.9,3.1-1.3C38.7,19.3,38.7,19.4,38.7,19.6z"/>
	</g>
</g>
</svg>
