<?xml version="1.0" encoding="utf-8"?>
<!-- Generator: Adobe Illustrator 27.5.0, SVG Export Plug-In . SVG Version: 6.00 Build 0)  -->
<svg version="1.1" id="Layer_1" xmlns="http://www.w3.org/2000/svg" xmlns:xlink="http://www.w3.org/1999/xlink" x="0px" y="0px"
	 viewBox="0 0 460.5 98.8" style="enable-background:new 0 0 460.5 98.8;" xml:space="preserve">
<style type="text/css">
	.st0{fill:#FFFFFF;}
</style>
<g>
	<g>
		<g>
			<path class="st0" d="M73.5,74.1c3.6,0.8,7.4,0.3,11.1,1c1.9,0.4,3.7,1,5.6,1.2c2,0.2,3.9,0,5.9-0.1c6.4-0.4,12.9,0.6,19.3,1.1
				c0.7,0.1,1.3,0.1,1.3,0.5c0,0.3-0.2,0.5-0.8,0.5c-13.1,0.1-26.4,0.7-39.3,3.1c-2.8,0.5-5.6,1.2-8.4,0.8c-1.6-0.2-3.2-0.7-4.8-1.1
				c-9.9-2.2-25.5,1-35.4-0.6c-0.4-0.1-0.4-0.6,0-0.7c2.3-0.2,9.8-0.7,12-1.3c2.7-0.8,5.4-1.8,8.3-2.1c1.8-0.2,3.7-0.1,5.5-0.3
				c2-0.2,4-0.6,5.9-1.1c2-0.5,4.1-1,6.1-1.5c0.3-3.3,0.4-4.7-0.4-7.5c-0.3-1.4-1.8-2.3-3.2-2.1c-0.6,0.1-3.6,0.5-4.2,0.4
				c-1.1-0.2-1.5,0.6-2.4,1c-1.2,0.6-2.4,1.1-3.7,1.4c-1,0.2-2.3,0.6-3.2,1.1c-0.9,0.5-1.3,1.5-2.5,1.3c-0.9-0.1-1.7-0.6-2.6-0.3
				c-0.5,0.1-0.7,0.5-1,0.8c-0.4,0.3-1,0-1.4-0.1c-0.5-0.1-1-0.1-1.5,0.1c-0.5,0.3-0.8,0.8-1.3,1c-0.4,0.2-0.9,0.2-1.3,0
				c-0.4-0.1-0.6-0.5-1-0.6c-0.9-0.4-1.9-0.6-2.9-0.6c-1.1,0.1-2.1,0.2-3.2,0.1c-1.1-0.1-2.2-0.1-3.2-0.4c-0.6-0.2-1.3-0.3-1.8-0.6
				c-0.7-0.4-0.8-0.9-0.7-1.6c0.1-0.6,0-1.1-0.7-1.4c-1.2-0.6-2,0.7-2.9,1.3c-0.5,0.3-1.2,0.2-1.8,0.1c-0.7-0.2-1.3-0.1-2,0.2
				c-0.6,0.2-1.1,0.5-1.7,0.6c-0.4,0.1-0.9,0-1.3-0.1c-0.8-0.2-1.6-0.4-2.4-0.7c-0.5-0.1-1.7-0.2-1.8-0.8c-0.1-0.8,0.9-1.3,1-2.1
				c0.2-1-0.9-1.1-1.6-1.3c-1.1-0.3-2.4-0.8-2.1-2.1c0.2-0.8,0.9-1.4,1.6-1.9c0.3-0.2,0.6-0.5,0.9-0.8c0.3-0.4,0.6-0.8,1-1.1
				c0.4-0.4,0.9-0.5,1.4-0.6c1-0.2,1.1-1.5,0.2-2c-0.5-0.2-1.2-0.3-1.5-0.8c-0.4-0.5-0.1-1.1,0.2-1.6c0.4-0.5,0.7-0.7,1.2-1.1
				c0.4-0.2,1-0.9,0.3-1.1c-0.4-0.1-0.9,0.1-1.3,0.1c-0.3,0-0.6,0.1-0.9,0.1c-1.9,0,0.4-1.7-0.3-2.5c-0.3-0.3-0.7-0.3-0.9-0.7
				c-0.5-0.8,0.4-2.3,1-3c0.3-0.4,2-1.4,1.7-2.1c-0.3-0.7-3.8,0-2.9-1.7c0.2-0.5,0.9-0.6,1.3-0.8c0.4-0.2,0.7-0.3,1.1-0.4
				c1.2-0.4,2.5-0.8,3.7-1.2c0.4-0.1,0.8-0.2,1.2-0.4c0.4-0.1,1.3-0.6,0.4-0.8c-0.7-0.1-1.4,0.5-2.1,0c-1.1-0.6,0.2-1.9,0.9-2.3
				c1-0.6,2.3-1.1,3.5-0.9c1,0.2,1.9,0.5,2.6-0.4c1.1-1.4,3.4-3.2,5.3-3.1c0.6,0,1.4,0.3,2,0.1c1-0.3,1.4-1.4,2.5-1.7
				c1.3-0.3,2.6,0.3,3.8,0.3c1.6,0,3.2-0.6,4.3-1.6c0.8-0.7,1.3-2.2,2.4-2.4c1.2-0.2,2,0.3,2.9-0.9c1.2-1.5,3.1-1.6,4.8-0.9
				c0.8,0.3,1.7,0.6,2.5,0c0.7-0.7,1.2-1.5,2-2.1c0.6-0.5,1.1-1.3,1.9-1.8c0.7-0.5,1.6-0.7,2.4-0.8c0.9-0.1,2,0.1,2.9-0.2
				c0.8-0.3,1-1.1,1.9-1.2c1.2-0.2,2.5,0.1,3.7-0.1c1-0.2,1.8-0.9,2.8-1.3c0.9-0.3,1.9,0,2.8,0.3c1.6,0.4,2.9-1,4.5-0.2
				c0.8,0.4,1.2,1.1,2.1,1.3c0.6,0.1,1.3,0,1.8,0.3c0.5,0.3,0.3,0.7,0.5,1.2c0.7,1.6,3.4,0,4.6,0c1.5,0,2.9,0.2,4.4,0.5
				c1.3,0.3,2.6,0.5,3.9,0.4c1-0.1,1.1-1.1,2.2-1.2c1.7-0.2,2.8,0.9,4.3,1.5c0.9,0.4,2.1,0.2,3,0.7c0.7,0.4,0.8,1.4,1.6,1.7
				c0.4,0.1,0.8-0.1,1.2,0.1c1.4,0.6,0.6,2.4,1.1,3.4c0.2,0.6,1,1,1.3,1.6c0.3,0.6,0.5,1.4,0.7,2.1c0.2,0.7,0.4,0.9,1.1,1.1
				c1.3,0.3,2.5,0.3,3.8,0.3c1.1,0,2.1,0.5,3.1,1.1c1.2,0.7,2.4,1,3.7,1.4c1,0.3,0.9,1.2,1.8,1.7c0.6,0.3,0.6,0.1,0.9,0.8
				c0.2,0.5,0.5,0.9,0.7,1.4c0.5,1,1,1.9,1.5,2.8c0.2,0.4,0.5,0.7,0.8,0.9c0.3,0.2,0.6,0.3,1,0.3c0.9,0.2,1.9,0.2,2.8,0.3
				c1,0.1,1.9,0.6,2.4,1.5c0.5,1.1,1.1,2.3,2.1,3c0.4,0.3,1,0.5,1.3,0.9c0.3,0.5-0.1,1,0.1,1.5c0.3,1,2.5,1,2.4,2.3
				c-0.1,0.9-1.7,1.3-2.3,1.6c-1,0.4-2.2,0.4-3.3,0.5c-1.1,0.2-3.9,0.5-3.5,2.2c0.2,0.7,1.1,0.8,1.5,1.4c0.5,0.6,0.6,1.5-0.1,2
				c-0.3,0.2-2.8,1.1-1.3,1.7c0.6,0.2,1.3-0.3,1.9-0.1c0.6,0.2,0.9,0.9,0.6,1.5c-0.5,0.8-2,0.1-1.8,1.5c0.1,0.9,1.2,2.1-0.3,2.2
				c-0.9,0.1-3.2-0.4-2.3,1.1c0.2,0.4,1.1,1,0.6,1.5c-0.2,0.2-1.1,0.1-1.4,0.1c-1.3-0.1-2.4-0.7-3.3,0.4c-0.6,0.8-1.7,0.7-2.6,0.8
				c-1.2,0.1-2.3,0-3.4,0.4c-1.2,0.4-2.3,1.1-3.5,1.4c-1,0.3-2.3-0.4-3.3-0.6c-0.5-0.1-1.1-0.3-1.6,0c-0.3,0.2-0.5,0.5-0.8,0.7
				c-1.3,0.8-3.3-0.1-4.6-0.4c-1.9-0.6-3.9-0.7-5.7-1.5c-0.6-0.3-0.9-0.6-1.2-1.2c-0.3-0.8,0.1-1.3,0.7-1.8c0.4-0.4,1.2-1.1,0.5-1.6
				c-0.6-0.4-1.3-0.4-2-0.5c-0.8-0.2-1.2-0.7-1.9-1.1c-0.6-0.3-0.9-0.3-1.5,0c-0.6,0.4-1.1,0.6-1.9,0.5c-1.4,0-2.7-0.1-4,0
				c-0.6,0.1-1.7,0.1-2.3-0.2C84,62.2,84,61.5,84,61c0-0.2,0.2-0.5,0.1-0.8c-0.4-1-2-0.3-2.6,0c-0.3,0.1-0.6,0.3-0.9,0.4
				c-0.8,0.3-3,0.8-3.9,1.2c-1.6,0.8-2.9,2.3-3.2,4C73,68.6,72.9,69.7,73.5,74.1"/>
		</g>
	</g>
	<g>
		<rect x="391.8" y="34.8" class="st0" width="2.5" height="1.7"/>
		<rect x="388.3" y="34.8" class="st0" width="2.5" height="1.7"/>
		<rect x="376" y="32.6" class="st0" width="2.5" height="1.7"/>
		<rect x="377.7" y="34.8" class="st0" width="2.5" height="1.7"/>
		<rect x="374.2" y="34.8" class="st0" width="2.5" height="1.7"/>
		<rect x="359.5" y="34.8" class="st0" width="2.5" height="1.7"/>
		<path class="st0" d="M359.1,41.4c0-0.9,0.6-1.5,1.5-1.5c0.9,0,1.5,0.6,1.5,1.5v3.9h-3V41.4z M420.5,41.4c0-0.9,0.6-1.5,1.5-1.5
			s1.5,0.6,1.5,1.5v3.9h-3V41.4z M402.1,47.4c1.2,0,2.3-0.4,3.1-1.2c0.8,0.7,1.9,1.2,3.1,1.2h18.2v0v0v-2.1v-2.8
			c0-3.5-1.7-4.2-4.5-4.2c-2.7,0-4.5,0.7-4.5,4.2v2.8h-4.7V39h-3v6.3h-1.5c-0.9,0-1.5-0.7-1.5-1.5V39h-3v4.8c0,0.9-0.7,1.5-1.5,1.5
			h-1.5V39h-3v6.3h-4.6V39h-3v6.3H385V39h-3v6.3h-1.5c-0.9,0-1.5-0.7-1.5-1.5V39h-3v4.8c0,0.9-0.7,1.5-1.5,1.5h-1.5V39h-3v6.3h-4.6
			v-2.8c0-3.5-1.7-4.2-4.5-4.2s-4.5,0.7-4.5,4.2v2.8h-3.6c-0.6-1.8-1.3-4.1-1.6-5.2c-0.3-1.1-0.7-1.6-1.8-1.6h-5
			c-1.1,0-1.7,1.3-1.7,2l0,4.8h-8.1c-2.2,0-2.6-0.9-2.6-2.5c0-1.7,1-2.7,3.2-2.7h2.4v-1.6h-3c-3.4,0-5.6,1.9-5.6,4.3
			c0,3.1,2.1,4.6,5.6,4.6h11v-6.1v0c0-0.5,0.2-1.1,1.4-1.1h1.2c0.5,1.5,1.2,3.7,1.7,5.3c0.3,1,0.8,2,2.2,2h22.4
			c1.2,0,2.3-0.4,3.1-1.2c0.8,0.7,1.9,1.2,3.1,1.2H402.1z"/>
		<g>
			<path class="st0" d="M253,45.3c-2.2,0-2.6-1-2.6-2.6c0-1.7,1-2.7,3.2-2.7h1.5v5.2L253,45.3z M270.3,45.3h-4.7v-6.3h-3v6.3H258
				v-6.8l-5,0c-3.4,0-5.6,2-5.6,4.3c0,3.1,2.1,4.6,5.6,4.6h20.3V32.8h-3V45.3z"/>
			<path class="st0" d="M299.2,38.9h-3v6.3h-1.5c-0.9,0-1.5-0.7-1.5-1.5v-4.8h-3v4.8c0,0.9-0.7,1.5-1.5,1.5h-1.5l0-6.3h-3v6.3h-4.8
				V32.8h-3v14.6h12.4c1.2,0,2.3-0.4,3.1-1.2c0.8,0.7,2.2,1.2,3.4,1.2h4.2V38.9z"/>
			<path class="st0" d="M163.3,45.3c-2.2,0-2.6-1-2.6-2.6c0-1.7,1-2.7,3.2-2.7h1.5v5.3H163.3z M200.5,45.3l-4.7,0V43
				c0-3.1-2.1-4.2-5.6-4.2h-6.8l6.3-3.3l-0.9-1.5l-8.9,4.8v1.6h10.4c2.2,0,2.6,0.9,2.6,2.5v2.3h-16.7v-6.4h-3v6.4h-4.8v-6.9l-5,0
				c-3.4,0-5.6,2-5.6,4.3c0,3.1,2.1,4.6,5.6,4.6h40.3v-8.5h-3.1V45.3z"/>
			<path class="st0" d="M309.1,50.2c0-0.3,0.2-0.6,0.6-0.6h1v-1h-1.5c-0.9,0-1.5,0.7-1.5,1.6v1.7h3.4v-1h-2V50.2z"/>
			<path class="st0" d="M301.9,48.2c0,1.8-1.1,1.8-2.1,1.4l-0.6,1.4c0.8,0.5,1.4,0.6,2.1,0.6c2.1,0,3.5-1.3,3.5-5.3v-7.3h-3V48.2z"
				/>
			<rect x="238.3" y="32.8" class="st0" width="3.1" height="14.6"/>
			<polygon class="st0" points="232.6,45.3 229.3,45.3 229.3,37.4 226.4,37.4 226.4,47.4 235.5,47.4 235.5,32.8 232.6,32.8 			"/>
			<g>
				<path class="st0" d="M228.4,33.8h1v-1h-1.5c-0.9,0-1.5,0.7-1.5,1.6v1.7h3.4v-1h-2v-0.8C227.8,34,228,33.8,228.4,33.8"/>
			</g>
			<rect x="264.7" y="49.2" class="st0" width="2.5" height="1.7"/>
			<rect x="261.2" y="49.2" class="st0" width="2.5" height="1.7"/>
			<rect x="200.4" y="49.2" class="st0" width="2.5" height="1.7"/>
			<rect x="196.9" y="49.2" class="st0" width="2.5" height="1.7"/>
			<rect x="175.1" y="49.2" class="st0" width="2.5" height="1.7"/>
			<rect x="171.6" y="49.2" class="st0" width="2.5" height="1.7"/>
			<rect x="254.4" y="34.6" class="st0" width="2.5" height="1.7"/>
			<rect x="250.9" y="34.6" class="st0" width="2.5" height="1.7"/>
			<rect x="164.7" y="34.6" class="st0" width="2.5" height="1.7"/>
			<rect x="161.2" y="34.6" class="st0" width="2.5" height="1.7"/>
			<g>
				<path class="st0" d="M217.4,45.3v-3.9c0-0.9,0.6-1.5,1.5-1.5s1.5,0.6,1.5,1.5v3.9H217.4z M218.9,38.2c-2.7,0-4.5,0.7-4.5,4.2
					v2.8h-4.6v-6.3l-3,0v9.3c0,1.8-1.1,1.8-2.1,1.4l-0.6,1.4c0.8,0.5,1.4,0.6,2.1,0.6c1.9,0,3.2-1.2,3.5-4.2h13.5v-2.1v-2.8
					C223.4,38.9,221.7,38.2,218.9,38.2"/>
			</g>
			<rect x="319.6" y="32.8" class="st0" width="3.1" height="14.6"/>
			<polygon class="st0" points="316.8,47.4 316.8,32.8 313.9,32.8 313.9,45.3 310.6,45.3 310.6,35.2 307.6,35.2 307.6,47.4 			"/>
		</g>
	</g>
	<g>
		<g>
			<rect x="209.7" y="57.5" class="st0" width="2.8" height="1.9"/>
			<path class="st0" d="M228.1,72.4c-3.1,0-4.7-1.3-4.7-3.6c0-2.6,1.8-3.9,5.7-3.9l0.6,0v-0.8c0-1.2-0.6-1.8-2-1.8
				c-0.9,0-2,0.3-2.9,0.7l-0.1,0.1l-0.7-1.8l0.1-0.1c1.2-0.5,2.6-0.9,3.9-0.9c2.9,0,4.4,1.4,4.4,4v7.1l-0.1,0
				C231.2,72.1,229.7,72.4,228.1,72.4z M229.4,66.4c-2.8,0-3.3,0.8-3.3,2.2c0,1.3,0.7,2,2.2,2c0.5,0,1-0.1,1.3-0.2l0.1,0v-4
				L229.4,66.4z"/>
			<path class="st0" d="M167.8,72.2l-1.1-3.8h-4.5l-1.1,3.8h-3.4l5.4-14.6h2.9l4.9,14.6H167.8z M164.4,61c-0.1,0.3-0.1,0.5-0.2,0.7
				l-1.4,4.9h3.4l-1.4-4.9c-0.1-0.2-0.1-0.4-0.2-0.7l0,0L164.4,61L164.4,61z"/>
			<path class="st0" d="M185.3,72.2v-7.9c0-1.3-0.6-2-1.9-2c-0.6,0-1.2,0.2-1.6,0.7l0,0l0,9.1H179V64c0-1.1-0.7-1.8-1.9-1.8
				c-0.6,0-1.1,0.1-1.5,0.2l-0.1,0v9.6h-2.8V61.3l0.1,0c1.3-0.6,2.7-0.8,4.2-0.8c1.5,0,2.5,0.3,3.4,1.1l0.1,0.1l0.1-0.1
				c0.9-0.7,2-1.1,3.3-1.1c3.7,0,4.3,2.4,4.3,3.9v7.9H185.3z"/>
			<path class="st0" d="M195.8,72.4c-3.3,0-5.4-2.3-5.4-6c0-3.7,1.9-6,5-6c3,0,4.7,2,4.7,5.6v1.5h-6.9l0,0.1c0.3,1.8,1.3,2.7,3,2.7
				c1.1,0,2.1-0.3,2.7-0.6l0.1-0.1l0.7,1.9l-0.1,0.1C198.6,72.1,197.1,72.4,195.8,72.4z M195.2,62.2c-1.4,0-2.3,1.3-2.3,3.6l0,0.1
				l4.3,0v-0.6C197.3,63.2,196.6,62.2,195.2,62.2z"/>
			<path class="st0" d="M202.3,72.2V61.3l0.1,0c0.8-0.4,2.2-0.8,4.1-0.8c0.5,0,1,0,1.4,0.1l0.2,0l-0.6,1.9l-0.1,0
				c-0.3-0.1-0.6-0.1-0.9-0.1c-0.7,0-1.1,0.1-1.2,0.2l-0.1,0v9.6H202.3z"/>
			<rect x="209.7" y="60.6" class="st0" width="2.8" height="11.5"/>
			<path class="st0" d="M219.4,72.4c-2.8,0-4.7-2.4-4.7-6c0-3.6,1.9-6,4.7-6c1.1,0,2.1,0.3,2.8,0.8l0.1,0.1l-0.7,1.7l-0.2-0.1
				c-0.4-0.3-1-0.5-1.5-0.5c-1.4,0-2.3,1.5-2.3,3.9c0,2.4,0.9,3.9,2.3,3.9c0.6,0,1.1-0.2,1.5-0.5l0.2-0.1l0.7,1.8l-0.1,0.1
				C221.5,72.1,220.5,72.4,219.4,72.4z"/>
			<path class="st0" d="M241.4,72.2v-7.8c0-1.4-0.6-2-2-2c-0.6,0-1,0.1-1.4,0.2l-0.1,0v9.6H235V61.3l0.1,0c1.2-0.5,2.7-0.8,4.3-0.8
				c3.2,0,4.8,1.3,4.8,3.9v7.8H241.4z"/>
			<rect x="290.6" y="57.5" class="st0" width="2.8" height="1.9"/>
			<rect x="266.8" y="57.5" class="st0" width="2.8" height="1.9"/>
			<rect x="266.8" y="60.6" class="st0" width="2.8" height="11.5"/>
			<path class="st0" d="M274.9,72.4c-1.2,0-2.5-0.3-3.3-0.8l-0.1-0.1l0.8-1.9l0.1,0.1c0.7,0.4,1.4,0.6,2.2,0.6c1,0,1.7-0.6,1.7-1.4
				c0-0.9-0.8-1.3-1.8-1.8c-1.2-0.5-2.7-1.2-2.7-3.3c0-2,1.6-3.4,3.8-3.4c1.3,0,2.3,0.3,3.2,0.8l0.1,0.1l-0.8,1.7l-0.1-0.1
				c-0.6-0.4-1.3-0.6-1.9-0.6c-1,0-1.5,0.5-1.5,1.3c0,0.9,0.8,1.2,1.8,1.7c1.3,0.6,2.8,1.3,2.8,3.4
				C279.2,70.9,277.4,72.4,274.9,72.4z"/>
			<path class="st0" d="M284,72.4c-1.2,0-2.5-0.3-3.3-0.8l-0.1-0.1l0.8-1.9l0.1,0.1c0.7,0.4,1.4,0.6,2.2,0.6c1,0,1.7-0.6,1.7-1.4
				c0-0.9-0.8-1.3-1.8-1.8c-1.2-0.5-2.7-1.2-2.7-3.3c0-2,1.6-3.4,3.8-3.4c1.3,0,2.3,0.3,3.2,0.8l0.1,0.1l-0.8,1.7l-0.1-0.1
				c-0.6-0.4-1.3-0.6-1.9-0.6c-1,0-1.5,0.5-1.5,1.3c0,0.9,0.8,1.2,1.8,1.7c1.3,0.6,2.8,1.3,2.8,3.4C288.3,70.9,286.5,72.4,284,72.4z
				"/>
			<rect x="290.6" y="60.6" class="st0" width="2.8" height="11.5"/>
			<path class="st0" d="M300.4,72.4c-3.1,0-4.9-2.2-4.9-6c0-3.7,1.8-6,4.9-6c3.1,0,4.9,2.2,4.9,6C305.3,70.1,303.5,72.4,300.4,72.4z
				 M300.4,62.3c-1.4,0-2.1,1.4-2.1,4.1c0,2.7,0.7,4.1,2.1,4.1c1.4,0,2.1-1.4,2.1-4.1C302.5,63.7,301.8,62.3,300.4,62.3z"/>
			<path class="st0" d="M313.9,72.2v-7.8c0-1.4-0.6-2-2-2c-0.6,0-1,0.1-1.4,0.2l-0.1,0v9.6h-2.8V61.3l0.1,0c1.2-0.5,2.8-0.8,4.3-0.8
				c3.2,0,4.8,1.3,4.8,3.9v7.8H313.9z"/>
			<rect x="370.3" y="57.5" class="st0" width="2.8" height="1.9"/>
			<path class="st0" d="M387.4,72.4c-3.1,0-4.7-1.3-4.7-3.6c0-2.6,1.8-3.9,5.7-3.9l0.6,0v-0.8c0-1.2-0.6-1.8-2-1.8
				c-0.9,0-2,0.3-2.9,0.7l-0.1,0.1l-0.7-1.8l0.1-0.1c1.2-0.5,2.6-0.9,3.9-0.9c2.9,0,4.4,1.4,4.4,4v7.1l-0.1,0
				C390.5,72.1,389,72.4,387.4,72.4z M388.7,66.4c-2.8,0-3.3,0.8-3.3,2.2c0,1.3,0.7,2,2.2,2c0.5,0,1-0.1,1.3-0.2l0.1,0v-4
				L388.7,66.4z"/>
			<polygon class="st0" points="332.3,72.2 332.3,65.7 326.5,65.7 326.5,72.2 323.6,72.2 323.6,57.5 326.5,57.5 326.5,63.6 
				332.3,63.6 332.3,57.5 335.2,57.5 335.2,72.2 			"/>
			<path class="st0" d="M342.6,72.4c-3.1,0-4.9-2.2-4.9-6c0-3.7,1.8-6,4.9-6c3.1,0,4.9,2.2,4.9,6C347.5,70.1,345.6,72.4,342.6,72.4z
				 M342.6,62.3c-1.4,0-2.1,1.4-2.1,4.1c0,2.7,0.7,4.1,2.1,4.1c1.4,0,2.1-1.4,2.1-4.1C344.6,63.7,343.9,62.3,342.6,62.3z"/>
			<path class="st0" d="M352.2,72.4c-1.2,0-2.5-0.3-3.3-0.8l-0.1-0.1l0.8-1.9l0.1,0.1c0.7,0.4,1.4,0.6,2.2,0.6c1,0,1.7-0.6,1.7-1.4
				c0-0.9-0.8-1.3-1.8-1.8c-1.2-0.5-2.7-1.2-2.7-3.3c0-2,1.6-3.4,3.8-3.4c1.3,0,2.3,0.3,3.2,0.8l0.1,0.1l-0.8,1.7l-0.1-0.1
				c-0.6-0.4-1.3-0.6-1.9-0.6c-1,0-1.5,0.5-1.5,1.3c0,0.9,0.8,1.2,1.8,1.7c1.3,0.6,2.8,1.3,2.8,3.4
				C356.5,70.9,354.7,72.4,352.2,72.4z"/>
			<path class="st0" d="M358.8,76.6V61.3l0.1,0c1.1-0.5,2.5-0.8,3.9-0.8c3.4,0,5.4,2.2,5.4,5.9c0,3.7-2,6.1-5.1,6.1
				c-0.6,0-1.1-0.1-1.4-0.2l-0.1,0v4.5H358.8z M362.7,62.2c-0.4,0-0.8,0.1-1.1,0.2l-0.1,0v7.9l0.1,0c0.2,0.1,0.5,0.1,0.9,0.1
				c1.9,0,2.8-1.4,2.8-4.2C365.4,63.5,364.5,62.2,362.7,62.2z"/>
			<rect x="370.3" y="60.6" class="st0" width="2.8" height="11.5"/>
			<path class="st0" d="M379.4,72.3c-2,0-3.2-1.2-3.2-3.3v-6.5H375v-1.9h1.3v-2.2h2.8v2.2h1.8v1.9h-1.8v6.5c0,0.8,0.4,1.2,1.1,1.2
				c0.2,0,0.4,0,0.6-0.1l0.2-0.1V72l-0.1,0C380.5,72.2,380,72.3,379.4,72.3z"/>
			<rect x="393.8" y="57.5" class="st0" width="2.8" height="14.6"/>
		</g>
		<polygon class="st0" points="261.3,57.5 257.7,64.2 254,57.5 251.1,57.5 251.1,72.2 254,72.2 254,62.6 256.7,67.3 258.5,67.4 
			261.3,62.5 261.3,72.2 264.2,72.2 264.2,57.5 		"/>
	</g>
</g>
</svg>
